Coordinates
version=1
nRows=14
nColumns=24
inDegrees=yes

Units are S.I. units (second, meters, Newtons, ...)
Angles are in degrees.

endheader
time	pelvis_tilt	pelvis_list	pelvis_rotation	pelvis_tx	pelvis_ty	pelvis_tz	hip_flexion_r	hip_adduction_r	hip_rotation_r	knee_angle_r	ankle_angle_r	subtalar_angle_r	mtp_angle_r	hip_flexion_l	hip_adduction_l	hip_rotation_l	knee_angle_l	ankle_angle_l	subtalar_angle_l	mtp_angle_l	lumbar_extension	lumbar_bending	lumbar_rotation
      0.94650000	      2.06759572	      2.61654032	     -4.01730748	     -0.15541307	      1.00968918	      0.27987127	    -12.92412922	     -1.58548258	     -3.68827442	    -11.20003617	     13.52847733	     -3.36392741	      8.45770395	     16.78576827	      1.96986844	    -10.42241464	      1.04901138	     -0.96830095	     -6.22294392	      4.72145121	     -7.60718285	     -2.78715151	     13.49030749
      0.95066667	      2.09747329	      2.63942704	     -4.00666829	     -0.14967722	      1.00916514	      0.27934809	    -13.05247003	     -1.68010415	     -3.69363085	    -11.73453085	     13.61300365	     -3.37214098	      8.43807027	     16.67473202	      2.06951125	    -10.27818882	      1.19877778	     -0.92417987	     -6.19364380	      4.74389789	     -7.60201534	     -2.83068424	     13.50533379
      0.95483333	      2.14877709	      2.69398618	     -4.01677042	     -0.14389887	      1.00870704	      0.27880301	    -13.16575035	     -1.83095115	     -3.75331014	    -12.34401353	     13.72556523	     -3.13583588	      8.40519253	     16.51376838	      2.20696977	    -10.06102627	      1.32310817	     -0.95839016	     -6.29773165	      4.80138959	     -7.63247831	     -2.89081721	     13.55989138
      0.95900000	      2.16730410	      2.75447078	     -4.01377763	     -0.13811238	      1.00824162	      0.27826296	    -13.22675400	     -1.97632155	     -3.77254501	    -12.98774244	     13.79848467	     -3.05753437	      8.38923221	     16.41329686	      2.34452091	     -9.82685384	      1.31775427	     -0.98882287	     -6.39461767	      4.85757082	     -7.61656636	     -2.97339870	     13.58198086
      0.96316667	      2.22661594	      2.82547998	     -4.01830539	     -0.13229748	      1.00786563	      0.27770734	    -13.30292415	     -2.14625932	     -3.83137251	    -13.68800081	     13.84349370	     -2.90379271	      8.38752030	     16.25252461	      2.49886186	     -9.54987723	      1.27493454	     -1.07283006	     -6.56428498	      4.93773217	     -7.63364811	     -3.06281442	     13.61129757
      0.96733333	      2.26291823	      2.91412256	     -4.01989822	     -0.12646362	      1.00749112	      0.27715691	    -13.32959065	     -2.33010993	     -3.86074506	    -14.43765786	     13.86773188	     -2.79756804	      8.40662966	     16.12705013	      2.66769867	     -9.24728672	      1.14466486	     -1.18085889	     -6.74967446	      5.02679788	     -7.63089691	     -3.17915709	     13.62594078
      0.97150000	      2.28673737	      3.00548059	     -4.02517429	     -0.12060149	      1.00713373	      0.27659970	    -13.31246190	     -2.52045547	     -3.89177291	    -15.24622620	     13.85947603	     -2.70036870	      8.44929240	     16.01354421	      2.83758951	     -8.92147859	      0.95636692	     -1.32638626	     -6.98129723	      5.12783985	     -7.59903774	     -3.29519146	     13.64365128
      0.97566667	      2.32330028	      3.10971256	     -4.01800690	     -0.11473839	      1.00682968	      0.27602156	    -13.28765917	     -2.72331216	     -3.93435166	    -16.09388476	     13.80294361	     -2.59915536	      8.53348711	     15.89716934	      3.02554346	     -8.56476338	      0.69777187	     -1.52004122	     -7.26788432	      5.26565720	     -7.59596203	     -3.43263906	     13.65586878
      0.97983333	      2.36358041	      3.22809034	     -4.03387562	     -0.10882777	      1.00655249	      0.27546699	    -13.23088944	     -2.94833097	     -3.94605703	    -17.01122005	     13.74829683	     -2.53454368	      8.62828753	     15.76061707	      3.22324011	     -8.22100737	      0.42396800	     -1.72082079	     -7.51692634	      5.38366105	     -7.57258630	     -3.58960996	     13.64984816
      0.98400000	      2.40599853	      3.34957143	     -4.02668830	     -0.10292627	      1.00631117	      0.27486796	    -13.15272345	     -3.17495583	     -3.98847977	    -17.97198407	     13.61962637	     -2.44208999	      8.79091040	     15.63930617	      3.43084284	     -7.83391608	      0.08020684	     -1.98197145	     -7.87198207	      5.54773777	     -7.57365366	     -3.74322168	     13.65537774
      0.98816667	      2.43201337	      3.48247005	     -4.04655127	     -0.09698014	      1.00607717	      0.27430165	    -13.01439794	     -3.41841585	     -3.99012086	    -19.01010431	     13.47598880	     -2.41080032	      8.95175767	     15.51802239	      3.64251014	     -7.48390673	     -0.26262741	     -2.24334646	     -8.15492042	      5.68362284	     -7.52587373	     -3.91538206	     13.63894592
      0.99233333	      2.51322203	      3.61809900	     -4.01730394	     -0.09103436	      1.00593782	      0.27365935	    -12.93199430	     -3.66076141	     -4.06193173	    -20.05560297	     13.21648711	     -2.36506602	      9.40669169	     15.34404648	      3.87787830	     -7.01123119	     -0.64303775	     -2.53271198	     -8.62998228	      6.01451822	     -7.56301383	     -4.09704874	     13.63268349
      0.99650000	      2.60199585	      3.76448795	     -4.02606197	     -0.08508835	      1.00583823	      0.27306840	    -12.80873102	     -3.92023692	     -4.06693910	    -21.18279948	     12.97060863	     -2.42676061	     10.79649557	     15.14245747	      4.11615236	     -6.59944447	     -0.99259592	     -2.97411076	     -9.12903966	      6.88530947	     -7.60833758	     -4.29100943	     13.60716451
      1.00066667	      2.57029828	      3.90356440	     -4.05121961	     -0.07912260	      1.00559821	      0.27248750	    -12.49108782	     -4.17616630	     -4.05998890	    -22.42459062	     12.67079766	     -2.39363781	     10.94286895	     15.13647458	      4.31406185	     -6.43555949	     -1.51094574	     -3.17986751	     -9.19264248	      6.96441720	     -7.48756719	     -4.46359175	     13.55927092
